<?xml version="1.0" encoding="UTF-8"?>
<svg xmlns="http://www.w3.org/2000/svg" version="1.1" viewBox="0 0 90.4 98.1">
  <g>
    <g id="Layer_1">
      <g>
        <path class="cls-1" d="M3.1,15.3h84.3c1.7,0,3.1,1.4,3.1,3.1s-1.4,3.1-3.1,3.1H3.1C1.4,21.5,0,20.1,0,18.4c0-1.7,1.4-3.1,3.1-3.1Z"/>
        <path class="cls-1" d="M33.7,38.3c1.7,0,3.1,1.4,3.1,3.1v30.7c0,1.7-1.4,3.1-3.1,3.1s-3.1-1.4-3.1-3.1v-30.7c0-1.7,1.4-3.1,3.1-3.1Z"/>
        <path class="cls-1" d="M56.7,38.3c1.7,0,3.1,1.4,3.1,3.1v30.7c0,1.7-1.4,3.1-3.1,3.1s-3.1-1.4-3.1-3.1v-30.7c0-1.7,1.4-3.1,3.1-3.1Z"/>
        <path class="cls-1" d="M10.7,15.3c1.7,0,3.1,1.4,3.1,3.1v72.8c0,.2,0,.4.2.5.1.1.3.2.5.2h61.3c.2,0,.4,0,.5-.2.1-.1.2-.3.2-.5V18.4c0-1.7,1.4-3.1,3.1-3.1s3.1,1.4,3.1,3.1v72.8c0,1.8-.7,3.6-2,4.9-1.3,1.3-3,2-4.9,2H14.6c-1.8,0-3.6-.7-4.9-2-1.3-1.3-2-3-2-4.9V18.4c0-1.7,1.4-3.1,3.1-3.1Z"/>
        <path class="cls-1" d="M26.1,3.1c2-2,4.7-3.1,7.6-3.1h23c2.8,0,5.6,1.1,7.6,3.1,2,2,3.1,4.7,3.1,7.6v7.7c0,1.7-1.4,3.1-3.1,3.1s-3.1-1.4-3.1-3.1v-7.7c0-1.2-.5-2.4-1.3-3.3-.9-.9-2-1.3-3.3-1.3h-23c-1.2,0-2.4.5-3.3,1.3-.9.9-1.3,2-1.3,3.3v7.7c0,1.7-1.4,3.1-3.1,3.1s-3.1-1.4-3.1-3.1v-7.7c0-2.8,1.1-5.6,3.1-7.6Z"/>
      </g>
    </g>
  </g>
</svg>
