<?xml version="1.0" encoding="UTF-8"?>
<svg xmlns="http://www.w3.org/2000/svg" version="1.1" viewBox="0 0 121.5 98.6">
  <defs>
    <style>
      .cls-1 {
        fill: #fff;
        fill-rule: evenodd;
      }
    </style>
  </defs>
  <!-- Generator: Adobe Illustrator 28.6.0, SVG Export Plug-In . SVG Version: 1.2.0 Build 709)  -->
  <g>
    <g id="Layer_1">
      <g>
        <path class="cls-1" d="M8.2,25.6c-.2,0-.5,0-.6.3-.2.2-.3.4-.3.6v63.9c0,.2,0,.5.3.6.2.2.4.3.6.3h87.3c.1,0,.2,0,.3-.1s.1-.2.1-.3v-50.7c0-.2,0-.5-.3-.6-.2-.2-.4-.3-.6-.3h-39.6c-1.8,0-3.5-.6-4.9-1.6h0s-15.9-11.9-15.9-11.9c0,0,0,0,0,0-.2-.1-.4-.2-.6-.2H8.2ZM2.4,20.7c1.5-1.5,3.6-2.4,5.8-2.4h25.9c1.8,0,3.5.6,4.9,1.6h0s15.9,11.9,15.9,11.9c0,0,0,0,0,0,.2.1.4.2.6.2h39.5c2.2,0,4.3.9,5.8,2.4,1.5,1.5,2.4,3.6,2.4,5.8v50.7c0,2-.8,4-2.3,5.4-1.4,1.4-3.4,2.3-5.4,2.3H8.2c-2.2,0-4.3-.9-5.8-2.4-1.5-1.5-2.4-3.6-2.4-5.8V26.5c0-2.2.9-4.3,2.4-5.8Z"/>
        <path class="cls-1" d="M8.2,25.6c-.2,0-.5,0-.6.3-.2.2-.3.4-.3.6v63.9c0,.2,0,.5.3.6.2.2.4.3.6.3h87.3c.1,0,.2,0,.3-.1s.1-.2.1-.3v-50.7c0-.2,0-.5-.3-.6-.2-.2-.4-.3-.6-.3h-39.6c-1.8,0-3.5-.6-4.9-1.6h0s-15.9-11.9-15.9-11.9c0,0,0,0,0,0-.2-.1-.4-.2-.6-.2H8.2ZM2.4,20.7c1.5-1.5,3.6-2.4,5.8-2.4h25.9c1.8,0,3.5.6,4.9,1.6h0s15.9,11.9,15.9,11.9c0,0,0,0,0,0,.2.1.4.2.6.2h39.5c2.2,0,4.3.9,5.8,2.4,1.5,1.5,2.4,3.6,2.4,5.8v50.7c0,2-.8,4-2.3,5.4-1.4,1.4-3.4,2.3-5.4,2.3H8.2c-2.2,0-4.3-.9-5.8-2.4-1.5-1.5-2.4-3.6-2.4-5.8V26.5c0-2.2.9-4.3,2.4-5.8Z"/>
        <path class="cls-1" d="M26.5,7.3c-.2,0-.5,0-.6.3-.2.2-.3.4-.3.6v13.7c0,2-1.6,3.7-3.7,3.7s-3.7-1.6-3.7-3.7v-13.7c0-2.2.9-4.3,2.4-5.8,1.5-1.5,3.6-2.4,5.8-2.4h25.9c1.8,0,3.5.6,4.9,1.6h0s15.9,11.9,15.9,11.9c0,0,0,0,0,0,.2.1.4.2.6.2h39.5c2.2,0,4.3.9,5.8,2.4,1.5,1.5,2.4,3.6,2.4,5.8v50.7c0,2-.8,4-2.3,5.4-1.4,1.4-3.4,2.3-5.4,2.3h-14.2c-2,0-3.7-1.6-3.7-3.7s1.6-3.7,3.7-3.7h14.2c.1,0,.2,0,.3-.1,0,0,.1-.2.1-.3V21.9c0-.2,0-.5-.3-.6-.2-.2-.4-.3-.6-.3h-39.6c-1.8,0-3.5-.6-4.9-1.6h0s-15.9-11.9-15.9-11.9c0,0,0,0,0,0-.2-.1-.4-.2-.6-.2h-25.8Z"/>
      </g>
    </g>
  </g>
</svg>
