<?xml version="1.0" encoding="UTF-8"?>
<svg xmlns="http://www.w3.org/2000/svg" version="1.1" viewBox="0 0 122.4 122.4">
  <defs>
    <style>
      .cls-1 {
        fill: #fff;
        fill-rule: evenodd;
      }
    </style>
  </defs>
  <!-- Generator: Adobe Illustrator 28.6.0, SVG Export Plug-In . SVG Version: 1.2.0 Build 709)  -->
  <g>
    <g id="Layer_1">
      <g>
        <path class="cls-1" d="M85,8.1c-.3,0-.5.1-.7.3L8.4,84.3l-2.9-2.9,2.9,2.9c0,0-.2.2-.2.3,0,.1,0,.3,0,.4v28.3c0,.3.1.5.3.7.2.2.4.3.7.3h28.7L114,38.1c.2-.2.3-.4.3-.7s-.1-.5-.3-.7l-28.3-28.3c-.2-.2-.4-.3-.7-.3ZM78.6,2.7c1.7-1.7,4-2.7,6.4-2.7s4.7,1,6.4,2.7l28.3,28.3c1.7,1.7,2.7,4,2.7,6.4s-1,4.7-2.7,6.4L42.3,121.3c-.8.8-1.8,1.2-2.9,1.2H9.1c-2.4,0-4.7-1-6.4-2.7-1.7-1.7-2.7-4-2.7-6.4v-28.3c0-1.2.2-2.4.7-3.5.5-1.1,1.1-2.1,2-3L78.6,2.7Z"/>
        <path class="cls-1" d="M61.9,19.3c1.6-1.6,4.1-1.6,5.7,0l35.4,35.4c1.6,1.6,1.6,4.1,0,5.7-1.6,1.6-4.1,1.6-5.7,0L61.9,25.1c-1.6-1.6-1.6-4.1,0-5.7Z"/>
      </g>
    </g>
  </g>
</svg>
